<?xml version="1.0" encoding="UTF-8"?>
<svg version="1.1" xmlns="http://www.w3.org/2000/svg" width="1522" height="1508">
<path d="M0 0 C45.92059482 -0.18830512 91.84122596 -0.36343151 137.76210022 -0.46577454 C138.44176094 -0.46729316 139.12142166 -0.46881179 139.82167816 -0.47037644 C154.59259686 -0.50329855 169.36351966 -0.53377054 184.13444858 -0.56171862 C191.37812614 -0.57543931 198.62180258 -0.5897014 205.86547852 -0.60424805 C206.5863107 -0.6056864 207.30714289 -0.60712475 208.04981848 -0.60860668 C231.41344108 -0.65548025 254.776771 -0.73810331 278.14021629 -0.83926943 C302.14955855 -0.9430435 326.15873884 -1.01074334 350.16830158 -1.03306489 C353.55959997 -1.03623459 356.95089781 -1.03981659 360.34219551 -1.04364967 C361.34337782 -1.04476215 361.34337782 -1.04476215 362.36478604 -1.04589711 C372.44300196 -1.0580903 382.52076914 -1.10198703 392.59879875 -1.16303062 C404.06551462 -1.23223435 415.53156966 -1.26469118 426.99849676 -1.24851515 C432.85118342 -1.24145821 438.7024004 -1.25239239 444.55482674 -1.31126022 C449.9130539 -1.36476405 455.26882254 -1.36751882 460.62716252 -1.32988784 C462.56544813 -1.3252369 464.50388666 -1.33922248 466.44187092 -1.37371501 C480.93656322 -1.61669462 480.93656322 -1.61669462 486.08004677 2.41320455 C488.35814304 5.17262904 490.18368025 7.9246244 492 11 C493.02788018 12.20743271 494.08247843 13.39399068 495.1875 14.53125 C495.65357666 15.02568604 496.11965332 15.52012207 496.59985352 16.02954102 C497.06190186 16.51479248 497.5239502 17.00004395 498 17.5 C502.46258552 22.25711758 506.63826412 27.16503433 510.72265625 32.25390625 C513.2182639 35.26318958 515.83763481 38.13940286 518.5 41 C521.95161936 44.70861688 525.26522148 48.48505895 528.4375 52.4375 C532.28110057 57.21621628 536.36960164 61.69157687 540.55834961 66.16381836 C544.4599667 70.35329526 548.07324797 74.72172936 551.65625 79.1875 C554.33208171 82.39849805 557.14358276 85.45029137 560 88.5 C564.43832674 93.23866464 568.5914225 98.12119326 572.65625 103.1875 C575.33208171 106.39849805 578.14358276 109.45029137 581 112.5 C585.43832674 117.23866464 589.5914225 122.12119326 593.65625 127.1875 C596.33208278 130.39849934 599.14359707 133.45027636 602 136.5 C606.45874444 141.26088994 610.6379783 146.1646782 614.72265625 151.25390625 C617.2182639 154.26318958 619.83763481 157.13940286 622.5 160 C625.95161936 163.70861688 629.26522148 167.48505895 632.4375 171.4375 C636.28110057 176.21621628 640.36960164 180.69157687 644.55834961 185.16381836 C648.4599667 189.35329526 652.07324797 193.72172936 655.65625 198.1875 C658.33208171 201.39849805 661.14358276 204.45029137 664 207.5 C668.43832674 212.23866464 672.5914225 217.12119326 676.65625 222.1875 C679.33208171 225.39849805 682.14358276 228.45029137 685 231.5 C689.43832674 236.23866464 693.5914225 241.12119326 697.65625 246.1875 C700.33208278 249.39849934 703.14359707 252.45027636 706 255.5 C710.45874444 260.26088994 714.6379783 265.1646782 718.72265625 270.25390625 C721.2182639 273.26318958 723.83763481 276.13940286 726.5 279 C729.95161936 282.70861688 733.26522148 286.48505895 736.4375 290.4375 C740.28110057 295.21621628 744.36960164 299.69157687 748.55834961 304.16381836 C752.4599667 308.35329526 756.07324797 312.72172936 759.65625 317.1875 C762.33208171 320.39849805 765.14358276 323.45029137 768 326.5 C772.43832674 331.23866464 776.5914225 336.12119326 780.65625 341.1875 C783.33208278 344.39849934 786.14359707 347.45027636 789 350.5 C793.45874444 355.26088994 797.6379783 360.1646782 801.72265625 365.25390625 C804.2182639 368.26318958 806.83763481 371.13940286 809.5 374 C812.95161936 377.70861688 816.26522148 381.48505895 819.4375 385.4375 C823.28110057 390.21621628 827.36960164 394.69157687 831.55834961 399.16381836 C835.4599667 403.35329526 839.07324797 407.72172936 842.65625 412.1875 C845.33208171 415.39849805 848.14358276 418.45029137 851 421.5 C855.43832674 426.23866464 859.5914225 431.12119326 863.65625 436.1875 C866.33208171 439.39849805 869.14358276 442.45029137 872 445.5 C876.43832674 450.23866464 880.5914225 455.12119326 884.65625 460.1875 C887.33208278 463.39849934 890.14359707 466.45027636 893 469.5 C897.45874444 474.26088994 901.6379783 479.1646782 905.72265625 484.25390625 C908.2182639 487.26318958 910.83763481 490.13940286 913.5 493 C916.95161936 496.70861688 920.26522148 500.48505895 923.4375 504.4375 C927.28110057 509.21621628 931.36960164 513.69157687 935.55834961 518.16381836 C939.4599667 522.35329526 943.07324797 526.72172936 946.65625 531.1875 C949.33208171 534.39849805 952.14358276 537.45029137 955 540.5 C959.43832674 545.23866464 963.5914225 550.12119326 967.65625 555.1875 C970.33208171 558.39849805 973.14358276 561.45029137 976 564.5 C980.43832674 569.23866464 984.5914225 574.12119326 988.65625 579.1875 C991.33208278 582.39849934 994.14359707 585.45027636 997 588.5 C1001.45874444 593.26088994 1005.6379783 598.1646782 1009.72265625 603.25390625 C1012.2182639 606.26318958 1014.83763481 609.13940286 1017.5 612 C1020.95161936 615.70861688 1024.26522148 619.48505895 1027.4375 623.4375 C1030.8034686 627.62238046 1034.33181453 631.58308496 1038 635.5 C1042.43398357 640.23577669 1046.63644388 645.08657562 1050.671875 650.171875 C1052.81268011 652.93065025 1052.81268011 652.93065025 1054.94353437 654.69303793 C1059.73100844 659.16920321 1061.55401511 662.53746652 1061.98438263 669.12011814 C1062.04675559 671.9819916 1062.00868282 674.8365116 1061.96203613 677.69837952 C1061.96552815 679.29420627 1061.97253908 680.89002852 1061.98274946 682.48582643 C1062.00058783 686.85569071 1061.96871187 691.22397819 1061.92852497 695.59364164 C1061.89391273 700.31131713 1061.90567276 705.0289068 1061.91174316 709.74667358 C1061.91593397 717.91532958 1061.8908769 726.08347359 1061.84584045 734.25200081 C1061.78076862 746.0621655 1061.75998328 757.87208314 1061.74993652 769.68240767 C1061.73243612 788.84464577 1061.67922014 808.00661113 1061.60351562 827.16870117 C1061.53006106 845.78066648 1061.47344465 864.39255764 1061.43945312 883.00463867 C1061.43735134 884.15226746 1061.43524955 885.29989624 1061.43308407 886.48230166 C1061.42264362 892.23973292 1061.41253399 897.9971647 1061.40258884 903.75459683 C1061.31968193 951.50325304 1061.17880024 999.2516132 1061 1047 C1015.32662991 1047.25684739 969.65318743 1047.49564728 923.97929382 1047.63514709 C923.30300481 1047.63721795 922.62671579 1047.63928881 921.92993317 1047.64142242 C907.23135681 1047.68631897 892.53277277 1047.72787128 877.83417727 1047.76597994 C870.62569656 1047.78468953 863.41721793 1047.8041379 856.20874023 1047.82397461 C855.49142077 1047.825936 854.7741013 1047.82789738 854.03504488 1047.8299182 C830.79624836 1047.8938068 807.55799993 1048.0064517 784.31953529 1048.14445831 C760.43333686 1048.28605354 736.5474416 1048.37830592 712.66083058 1048.40872485 C709.28486943 1048.41304699 705.90890931 1048.41793154 702.53294945 1048.42315865 C701.53632112 1048.42467566 701.53632112 1048.42467566 700.5195589 1048.42622333 C689.17719986 1048.44502219 677.83597153 1048.5248079 666.49400701 1048.618747 C656.40511271 1048.69805006 646.31703168 1048.72199917 636.22784833 1048.70252066 C630.40656761 1048.69291366 624.58803584 1048.70761143 618.76724434 1048.78808212 C613.43280506 1048.86128942 608.10295156 1048.86465154 602.76829746 1048.81348342 C600.84335631 1048.80716429 598.9181247 1048.82603897 596.99375216 1048.87324774 C581.92282289 1049.22133886 581.92282289 1049.22133886 576.1029762 1043.78826821 C573.24274152 1040.702118 570.77252126 1037.40814759 568.38798418 1033.9464137 C566.11681377 1030.76148028 563.52166807 1027.86902509 560.9375 1024.9375 C559.9448957 1023.78142152 558.95380242 1022.62404239 557.96484375 1021.46484375 C554.97875854 1017.97467822 551.98960842 1014.48714768 549 1011 C547.9999866 1009.83334482 546.99998659 1008.66667816 546 1007.5 C545.505 1006.9225 545.01 1006.345 544.5 1005.75 C519 976 493.5 946.25 468 916.5 C467.5047583 915.9222583 467.0095166 915.3445166 466.49926758 914.74926758 C465.50154805 913.58518023 464.50398886 912.42095544 463.5065918 911.2565918 C460.97301257 908.29930113 458.43649863 905.34461631 455.89453125 902.39453125 C451.30393447 897.06164678 446.74238602 891.71814055 442.3125 886.25 C438.76254679 881.87492253 435.04436179 877.69450808 431.25 873.53125 C428.13067124 870.02200514 425.20250867 866.36837877 422.25 862.71875 C420.06498431 860.07852271 417.80828609 857.5327028 415.5 855 C411.58108748 850.70008209 407.90829131 846.24080453 404.25 841.71875 C402.06498431 839.07852271 399.80828609 836.5327028 397.5 834 C393.58108748 829.70008209 389.90829131 825.24080453 386.25 820.71875 C384.06498431 818.07852271 381.80828609 815.5327028 379.5 813 C375.58108748 808.70008209 371.90829131 804.24080453 368.25 799.71875 C366.06498431 797.07852271 363.80828609 794.5327028 361.5 792 C357.58108748 787.70008209 353.90829131 783.24080453 350.25 778.71875 C348.06498431 776.07852271 345.80828609 773.5327028 343.5 771 C340.47717579 767.68010514 337.57487839 764.30235888 334.75 760.8125 C329.53481485 754.37288007 324.08668248 748.14544597 318.64648438 741.89648438 C316.06362591 738.92144811 313.49943086 735.9305594 310.9375 732.9375 C310.44660889 732.36410889 309.95571777 731.79071777 309.44995117 731.19995117 C308.46114797 730.04469482 307.47245951 728.88934024 306.48388672 727.73388672 C303.99104476 724.82105954 301.49537234 721.91065939 299 719 C297.9999866 717.83334482 296.99998659 716.66667816 296 715.5 C295.505 714.9225 295.01 714.345 294.5 713.75 C269 684 243.5 654.25 218 624.5 C217.5047583 623.9222583 217.0095166 623.3445166 216.49926758 622.74926758 C215.50154805 621.58518023 214.50398886 620.42095544 213.5065918 619.2565918 C210.97301257 616.29930113 208.43649863 613.34461631 205.89453125 610.39453125 C201.30393447 605.06164678 196.74238602 599.71814055 192.3125 594.25 C188.76254679 589.87492253 185.04436179 585.69450808 181.25 581.53125 C178.13067124 578.02200514 175.20250867 574.36837877 172.25 570.71875 C170.06498431 568.07852271 167.80828609 565.5327028 165.5 563 C161.58108748 558.70008209 157.90829131 554.24080453 154.25 549.71875 C152.06498431 547.07852271 149.80828609 544.5327028 147.5 542 C143.58108748 537.70008209 139.90829131 533.24080453 136.25 528.71875 C134.06498431 526.07852271 131.80828609 523.5327028 129.5 521 C125.58108748 516.70008209 121.90829131 512.24080453 118.25 507.71875 C116.06498431 505.07852271 113.80828609 502.5327028 111.5 500 C107.58108748 495.70008209 103.90829131 491.24080453 100.25 486.71875 C98.06498431 484.07852271 95.80828609 481.5327028 93.5 479 C90.47717579 475.68010514 87.57487839 472.30235888 84.75 468.8125 C79.53481485 462.37288007 74.08668248 456.14544597 68.64648438 449.89648438 C66.06362591 446.92144811 63.49943086 443.9305594 60.9375 440.9375 C60.44660889 440.36410889 59.95571777 439.79071777 59.44995117 439.19995117 C58.46114797 438.04469482 57.47245951 436.88934024 56.48388672 435.73388672 C53.99104476 432.82105954 51.49537234 429.91065939 49 427 C47.9999866 425.83334482 46.99998659 424.66667816 46 423.5 C45.2575 422.63375 45.2575 422.63375 44.5 421.75 C28 402.5 28 402.5 26.4987793 400.74853516 C25.50290197 399.58670531 24.50697133 398.42492114 23.51098633 397.26318359 C20.94746128 394.27289394 18.3849836 391.28171637 15.82421875 388.2890625 C15.0362793 387.36867188 15.0362793 387.36867188 14.23242188 386.4296875 C13.24508972 385.27634375 12.25807861 384.12272505 11.27148438 382.96875 C10.81451172 382.43507813 10.35753906 381.90140625 9.88671875 381.3515625 C9.45667292 380.83267346 9.02662708 380.31378442 8.58354956 379.77917147 C7.03785199 377.96620973 7.03785199 377.96620973 5.21643776 376.45034742 C0.85026463 372.37411182 -0.49889102 369.20584454 -0.8613348 363.23719025 C-0.89075941 360.48251947 -0.88258011 357.74431408 -0.84178162 354.99133301 C-0.84483657 353.45824357 -0.85097011 351.92515771 -0.85990578 350.39209127 C-0.87552483 346.19111248 -0.84760733 341.99138788 -0.81245935 337.79056883 C-0.78218936 333.2562443 -0.79246257 328.72198872 -0.79777527 324.18759155 C-0.8014432 316.33544702 -0.77950782 308.4837101 -0.7401104 300.63166809 C-0.68318604 289.27904963 -0.66498672 277.92662799 -0.65619446 266.57388228 C-0.64087951 248.15428639 -0.59430978 229.73490768 -0.52807617 211.31542969 C-0.46380889 193.42416469 -0.41426683 175.53295871 -0.38452148 157.64160156 C-0.38268242 156.53851499 -0.38084336 155.43542841 -0.37894856 154.29891497 C-0.3698132 148.76497405 -0.36096727 143.23103272 -0.35226524 137.6970911 C-0.27971516 91.79791032 -0.15643791 45.89896637 0 0 Z " fill="#000000" transform="translate(230,230)"/>
<path d="M0 0 C3.76478859 1.25492953 4.69380667 2.83097519 7.125 5.9375 C10.15073542 9.7319093 13.22397726 13.41936462 16.5 17 C19.52282421 20.31989486 22.42512161 23.69764112 25.25 27.1875 C30.46386438 33.62548906 35.91041253 39.85163566 41.34912109 46.09912109 C48.25089085 54.04605682 55.06687286 62.06677899 61.8581543 70.1081543 C67.20486451 76.43447289 72.60347353 82.71618337 78 89 C84.31088314 96.34851068 90.6080438 103.70740317 96.85791016 111.10791016 C102.20478107 117.43424365 107.60339832 123.71609579 113 130 C119.31088314 137.34851068 125.6080438 144.70740317 131.85791016 152.10791016 C137.20478107 158.43424365 142.60339832 164.71609579 148 171 C154.31088314 178.34851068 160.6080438 185.70740317 166.85791016 193.10791016 C172.20478107 199.43424365 177.60339832 205.71609579 183 212 C189.31088314 219.34851068 195.6080438 226.70740317 201.85791016 234.10791016 C207.20478107 240.43424365 212.60339832 246.71609579 218 253 C224.31088314 260.34851068 230.6080438 267.70740317 236.85791016 275.10791016 C242.20478107 281.43424365 247.60339832 287.71609579 253 294 C259.31088314 301.34851068 265.6080438 308.70740317 271.85791016 316.10791016 C277.20478107 322.43424365 282.60339832 328.71609579 288 335 C294.31088314 342.34851068 300.6080438 349.70740317 306.85791016 357.10791016 C312.20478107 363.43424365 317.60339832 369.71609579 323 376 C329.31088314 383.34851068 335.6080438 390.70740317 341.85791016 398.10791016 C347.20478107 404.43424365 352.60339832 410.71609579 358 417 C364.31088314 424.34851068 370.6080438 431.70740317 376.85791016 439.10791016 C382.20478107 445.43424365 387.60339832 451.71609579 393 458 C399.31088314 465.34851068 405.6080438 472.70740317 411.85791016 480.10791016 C417.20478107 486.43424365 422.60339832 492.71609579 428 499 C434.77534806 506.88934235 441.5361031 514.7899222 448.2421875 522.73828125 C450.19772485 525.05509105 452.16275269 527.36349645 454.1328125 529.66796875 C454.89936157 530.56696899 454.89936157 530.56696899 455.68139648 531.48413086 C456.66855363 532.64154821 457.65758406 533.79737106 458.64868164 534.95141602 C462 538.8876024 462 538.8876024 462 540 C309.54 540 157.08 540 0 540 C0 361.8 0 183.6 0 0 Z " fill="#000000" transform="translate(230,737)"/>
<path d="M0 0 C152.46 0 304.92 0 462 0 C462 175.89 462 351.78 462 533 C454.28636352 525.28636352 447.12889281 517.23721926 440.28125 508.75 C437.13805742 504.96094593 433.79841405 501.36730648 430.46484375 497.74609375 C428.07292703 495.08124834 425.80745116 492.35168175 423.5625 489.5625 C419.90428985 485.02683557 416.05257035 480.7429883 412.08618164 476.48071289 C408.30509442 472.39338994 404.80310034 468.11956756 401.3125 463.78125 C398.80028867 460.75980664 396.17597543 457.87559922 393.5 455 C389.2104224 450.38998361 385.19589103 445.62216764 381.24609375 440.71484375 C378.9116941 437.89326505 376.48009402 435.19409288 374 432.5 C370.72581577 428.94329756 367.59357567 425.32838189 364.5625 421.5625 C360.90428985 417.02683557 357.05257035 412.7429883 353.08618164 408.48071289 C349.30509442 404.39338994 345.80310034 400.11956756 342.3125 395.78125 C339.80028867 392.75980664 337.17597543 389.87559922 334.5 387 C330.2104224 382.38998361 326.19589103 377.62216764 322.24609375 372.71484375 C319.9116941 369.89326505 317.48009402 367.19409288 315 364.5 C311.72581577 360.94329756 308.59357567 357.32838189 305.5625 353.5625 C301.90428985 349.02683557 298.05257035 344.7429883 294.08618164 340.48071289 C290.30509442 336.39338994 286.80310034 332.11956756 283.3125 327.78125 C280.80028867 324.75980664 278.17597543 321.87559922 275.5 319 C271.2104224 314.38998361 267.19589103 309.62216764 263.24609375 304.71484375 C260.9116941 301.89326505 258.48009402 299.19409288 256 296.5 C252.72581577 292.94329756 249.59357567 289.32838189 246.5625 285.5625 C242.90428985 281.02683557 239.05257035 276.7429883 235.08618164 272.48071289 C231.30509442 268.39338994 227.80310034 264.11956756 224.3125 259.78125 C221.80028867 256.75980664 219.17597543 253.87559922 216.5 251 C212.2104224 246.38998361 208.19589103 241.62216764 204.24609375 236.71484375 C201.9116941 233.89326505 199.48009402 231.19409288 197 228.5 C193.72581577 224.94329756 190.59357567 221.32838189 187.5625 217.5625 C183.90428985 213.02683557 180.05257035 208.7429883 176.08618164 204.48071289 C172.30509442 200.39338994 168.80310034 196.11956756 165.3125 191.78125 C162.80028867 188.75980664 160.17597543 185.87559922 157.5 183 C153.2104224 178.38998361 149.19589103 173.62216764 145.24609375 168.71484375 C142.9116941 165.89326505 140.48009402 163.19409288 138 160.5 C134.72581577 156.94329756 131.59357567 153.32838189 128.5625 149.5625 C124.90428985 145.02683557 121.05257035 140.7429883 117.08618164 136.48071289 C113.30509442 132.39338994 109.80310034 128.11956756 106.3125 123.78125 C103.80028867 120.75980664 101.17597543 117.87559922 98.5 115 C94.2104224 110.38998361 90.19589103 105.62216764 86.24609375 100.71484375 C83.9116941 97.89326505 81.48009402 95.19409288 79 92.5 C75.72581577 88.94329756 72.59357567 85.32838189 69.5625 81.5625 C65.90428985 77.02683557 62.05257035 72.7429883 58.08618164 68.48071289 C54.30509442 64.39338994 50.80310034 60.11956756 47.3125 55.78125 C44.80028867 52.75980664 42.17597543 49.87559922 39.5 47 C35.2104224 42.38998361 31.19589103 37.62216764 27.24609375 32.71484375 C24.9116941 29.89326505 22.48009402 27.19409288 20 24.5 C15.83712281 19.97513349 11.91028899 15.30840447 8.05078125 10.5234375 C6.2188082 8.26923828 4.34564355 6.06467293 2.4375 3.875 C0 1 0 1 0 0 Z " fill="#000000" transform="translate(829,230)"/>
</svg>
